<svg xmlns="http://www.w3.org/2000/svg" width="149" height="34" viewBox="0 0 149 34" fill="none">
<path d="M1.4688 33.5V29.3528L16.6464 16.5944H1.4688V12.764H22.2048V16.9112L7.0272 29.6696H22.2048V33.5H1.4688ZM29.0963 33.5C28.3667 33.5 27.7043 33.3176 27.1091 32.9528C26.5139 32.588 26.0339 32.108 25.6691 31.5128C25.3043 30.9176 25.1219 30.2552 25.1219 29.5256V20.7704C25.1219 20.0408 25.3043 19.3784 25.6691 18.7832C26.0339 18.188 26.5139 17.708 27.1091 17.3432C27.7043 16.9784 28.3667 16.796 29.0963 16.796H38.1107C38.8403 16.796 39.5027 16.9784 40.0979 17.3432C40.7123 17.708 41.1923 18.188 41.5379 18.7832C41.9027 19.3784 42.0851 20.0408 42.0851 20.7704V29.5256C42.0851 30.2552 41.9027 30.9176 41.5379 31.5128C41.1923 32.108 40.7219 32.588 40.1267 32.9528C39.5315 33.3176 38.8595 33.5 38.1107 33.5H29.0963ZM29.2403 29.7272H37.9667C38.0627 29.7272 38.1395 29.6984 38.1971 29.6408C38.2739 29.564 38.3123 29.4776 38.3123 29.3816V20.9144C38.3123 20.8184 38.2739 20.7416 38.1971 20.684C38.1395 20.6072 38.0627 20.5688 37.9667 20.5688H29.2403C29.1443 20.5688 29.0579 20.6072 28.9811 20.684C28.9235 20.7416 28.8947 20.8184 28.8947 20.9144V29.3816C28.8947 29.4776 28.9235 29.564 28.9811 29.6408C29.0579 29.6984 29.1443 29.7272 29.2403 29.7272ZM44.4458 33.5V16.796H57.4346C58.1642 16.796 58.8266 16.9784 59.4218 17.3432C60.0362 17.708 60.5162 18.188 60.8618 18.7832C61.2266 19.3784 61.409 20.0408 61.409 20.7704V33.5H57.6362V20.9144C57.6362 20.8184 57.5978 20.7416 57.521 20.684C57.4634 20.6072 57.3866 20.5688 57.2906 20.5688H48.5642C48.4682 20.5688 48.3818 20.6072 48.305 20.684C48.2474 20.7416 48.2186 20.8184 48.2186 20.9144V33.5H44.4458ZM64.4413 33.5V16.796H68.2141V33.5H64.4413ZM64.4413 15.1256V11.324H68.2141V15.1256H64.4413Z" fill="#111111"/>
<path d="M94.5 0.5L93.5 2L97 4L99.5 0.5H94.5Z" fill="#2E90F4" stroke="#2E90F4"/>
<path d="M91.4891 4.01142L91.4971 4L91.4888 4.01122L91.4891 4.01142L81 18.9141L74 10.4141H69.5L78.4827 22.0898L70.1484 33.5H75.9183L81.0471 25.4458L87.846 33.5H92.4308L84.2801 22.0898C84.2801 22.0898 91.2409 12.8416 95.4971 6.55085V6.5L92.9971 5L91.4891 4.01142Z" fill="#2E90F4"/>
<path d="M102.501 32.5C101.771 32.5 101.109 32.3176 100.514 31.9528C99.9184 31.588 99.4384 31.108 99.0736 30.5128C98.7088 29.9176 98.5264 29.2552 98.5264 28.5256V10.6696H102.299V15.796H108.808V19.5688H102.299V28.3816C102.299 28.4776 102.328 28.564 102.386 28.6408C102.462 28.6984 102.549 28.7272 102.645 28.7272H108.808V32.5H102.501ZM115.071 32.5C114.342 32.5 113.679 32.3176 113.084 31.9528C112.489 31.588 112.009 31.108 111.644 30.5128C111.279 29.9176 111.097 29.2552 111.097 28.5256V19.7704C111.097 19.0408 111.279 18.3784 111.644 17.7832C112.009 17.188 112.489 16.708 113.084 16.3432C113.679 15.9784 114.342 15.796 115.071 15.796H124.086C124.815 15.796 125.478 15.9784 126.073 16.3432C126.687 16.708 127.167 17.188 127.513 17.7832C127.878 18.3784 128.06 19.0408 128.06 19.7704V26.0488H114.87V28.3816C114.87 28.4776 114.899 28.564 114.956 28.6408C115.033 28.6984 115.119 28.7272 115.215 28.7272H128.06V32.5H115.071ZM114.87 22.6504H124.287V19.9144C124.287 19.8184 124.249 19.7416 124.172 19.684C124.115 19.6072 124.038 19.5688 123.942 19.5688H115.215C115.119 19.5688 115.033 19.6072 114.956 19.684C114.899 19.7416 114.87 19.8184 114.87 19.9144V22.6504ZM134.337 32.5C133.607 32.5 132.945 32.3176 132.35 31.9528C131.755 31.588 131.275 31.108 130.91 30.5128C130.545 29.9176 130.363 29.2552 130.363 28.5256V19.7704C130.363 19.0408 130.545 18.3784 130.91 17.7832C131.275 17.188 131.755 16.708 132.35 16.3432C132.945 15.9784 133.607 15.796 134.337 15.796H147.297V19.5688H134.481C134.385 19.5688 134.299 19.6072 134.222 19.684C134.164 19.7416 134.135 19.8184 134.135 19.9144V28.3816C134.135 28.4776 134.164 28.564 134.222 28.6408C134.299 28.6984 134.385 28.7272 134.481 28.7272H147.326V32.5H134.337Z" fill="#00f2ff"/>
</svg>